<?xml version="1.0" encoding="UTF-8" standalone="no"?>
<!DOCTYPE svg PUBLIC "-//W3C//DTD SVG 1.1//EN" "http://www.w3.org/Graphics/SVG/1.1/DTD/svg11.dtd">
<svg xmlns="http://www.w3.org/2000/svg" version="1.1" viewBox="0.00 0.00 1024.00 1024.00">
<path fill="#e02f40" d="
  M 542.80 263.22
  C 540.81 270.88 537.17 278.33 533.47 285.32
  Q 507.18 275.96 487.47 293.13
  Q 484.71 295.53 481.87 299.15
  C 471.58 312.25 468.88 327.30 475.11 342.86
  Q 477.11 347.86 483.03 354.97
  C 481.15 363.52 475.90 370.71 471.08 377.84
  Q 457.87 366.24 451.35 349.90
  Q 442.57 327.83 450.28 305.53
  Q 455.97 289.08 468.56 277.12
  Q 475.74 270.29 484.91 265.72
  C 502.46 256.98 524.42 255.54 542.80 263.22
  Z"
/>
<path fill="#b82034" d="
  M 581.22 578.79
  Q 583.44 578.13 583.83 577.11
  Q 586.94 569.13 587.60 566.86
  Q 590.06 558.40 589.31 548.07
  Q 588.48 536.74 588.99 530.10
  Q 598.64 540.32 603.44 552.83
  Q 606.15 559.89 607.74 567.21
  Q 609.19 573.88 608.85 582.26
  A 0.77 0.76 -79.4 0 1 607.84 582.96
  L 600.51 580.46
  A 0.99 0.98 -78.4 0 0 599.21 581.32
  Q 597.98 597.27 587.74 609.49
  Q 583.41 614.66 573.44 619.12
  Q 570.01 619.93 565.73 619.93
  Q 555.82 619.93 548.11 613.98
  Q 534.60 603.56 528.19 587.62
  Q 524.73 579.02 523.63 574.82
  Q 520.14 561.44 516.63 548.02
  Q 519.26 543.44 519.36 541.25
  Q 519.77 531.66 518.88 507.56
  C 518.60 500.07 518.96 491.82 518.91 485.00
  Q 518.70 458.60 517.88 405.81
  Q 517.68 392.79 518.41 344.46
  Q 526.07 344.75 532.36 349.15
  Q 537.35 352.64 538.11 358.66
  Q 538.37 360.71 538.47 363.56
  A 0.96 0.96 0.0 0 0 539.84 364.40
  C 551.02 359.04 558.90 347.71 561.74 335.76
  Q 564.21 325.34 560.33 314.30
  Q 553.19 293.98 533.47 285.32
  C 537.17 278.33 540.81 270.88 542.80 263.22
  Q 546.66 264.60 551.22 267.30
  Q 568.85 277.73 578.17 295.54
  Q 588.86 316.00 585.62 337.97
  Q 584.08 348.38 579.92 357.09
  Q 570.44 376.92 550.40 387.36
  Q 545.78 389.77 540.41 391.15
  A 0.48 0.47 -7.0 0 0 540.05 391.61
  Q 540.16 398.34 540.23 400.05
  Q 542.21 449.54 542.68 466.80
  Q 544.14 520.24 546.19 565.01
  Q 546.53 572.30 547.22 578.01
  C 548.49 588.49 556.81 592.97 566.56 591.93
  C 572.62 591.28 578.27 586.22 581.20 581.19
  Q 581.95 579.90 581.22 578.79
  Z"
/>
<path fill="#e02f40" d="
  M 518.41 344.46
  Q 517.68 392.79 517.88 405.81
  Q 518.70 458.60 518.91 485.00
  C 518.96 491.82 518.60 500.07 518.88 507.56
  Q 519.77 531.66 519.36 541.25
  Q 519.26 543.44 516.63 548.02
  Q 513.33 536.27 511.70 531.81
  Q 502.76 507.47 493.16 483.37
  Q 492.80 482.47 492.52 481.55
  Q 492.32 480.86 492.48 480.70
  L 495.52 391.75
  Q 495.73 390.65 495.60 387.00
  Q 495.30 378.61 496.22 366.55
  C 496.31 365.39 495.95 364.57 495.64 363.49
  Q 496.11 362.80 496.08 362.25
  Q 495.59 353.30 501.97 348.96
  Q 508.36 344.61 518.41 344.46
  Z"
/>
<path fill="#b82034" d="
  M 495.64 363.49
  C 495.95 364.57 496.31 365.39 496.22 366.55
  Q 495.30 378.61 495.60 387.00
  Q 495.73 390.65 495.52 391.75
  Q 490.83 389.66 485.95 387.57
  Q 478.99 384.58 471.08 377.84
  C 475.90 370.71 481.15 363.52 483.03 354.97
  Q 488.02 360.53 494.72 363.83
  Q 495.11 364.02 495.42 363.71
  L 495.64 363.49
  Z"
/>
<path fill="#65b8d0" d="
  M 492.52 481.55
  L 492.12 481.46
  Q 492.20 480.93 492.48 480.70
  Q 492.32 480.86 492.52 481.55
  Z"
/>
<path fill="#e7f3f5" d="
  M 492.52 481.55
  Q 492.80 482.47 493.16 483.37
  Q 502.76 507.47 511.70 531.81
  Q 513.33 536.27 516.63 548.02
  Q 520.14 561.44 523.63 574.82
  Q 524.73 579.02 528.19 587.62
  Q 534.60 603.56 548.11 613.98
  Q 555.82 619.93 565.73 619.93
  Q 570.01 619.93 573.44 619.12
  Q 575.65 620.76 575.45 623.94
  Q 555.49 630.00 536.14 622.09
  C 527.52 618.56 520.79 614.81 511.73 609.97
  Q 502.00 604.77 495.45 602.41
  Q 467.02 592.16 437.73 603.99
  Q 432.75 606.00 427.78 608.49
  Q 429.15 606.15 431.14 604.63
  Q 474.03 571.80 485.74 519.53
  C 487.98 509.52 489.44 495.23 490.89 485.71
  Q 491.13 484.16 492.12 481.46
  L 492.52 481.55
  Z"
/>
<path fill="#e7f3f5" d="
  M 469.3153 501.9033
  A 9.77 9.52 108.9 0 1 463.4733 489.5763
  A 9.77 9.52 108.9 0 1 475.6447 483.4167
  A 9.77 9.52 108.9 0 1 481.4867 495.7437
  A 9.77 9.52 108.9 0 1 469.3153 501.9033
  Z"
/>
<path fill="#e7f3f5" d="
  M 446.4609 509.5583
  A 10.00 9.66 64.4 0 1 433.4283 504.7139
  A 10.00 9.66 64.4 0 1 437.8191 491.5217
  A 10.00 9.66 64.4 0 1 450.8517 496.3661
  A 10.00 9.66 64.4 0 1 446.4609 509.5583
  Z"
/>
<path fill="#e02f40" d="
  M 712.78 498.87
  Q 712.39 502.62 712.79 504.71
  Q 715.05 516.47 715.55 522.99
  Q 715.78 525.98 716.04 540.81
  C 716.08 543.01 716.59 545.16 717.15 547.11
  Q 717.54 548.46 717.62 551.85
  Q 717.98 567.67 716.03 583.37
  C 715.42 588.29 714.37 592.44 713.60 597.00
  Q 712.90 601.16 711.15 607.07
  Q 710.63 608.82 708.17 617.12
  Q 706.62 622.38 704.57 626.94
  Q 702.78 630.93 698.30 640.09
  C 693.79 649.32 688.08 657.20 681.58 666.05
  Q 676.59 672.84 671.48 678.09
  Q 661.29 688.55 652.04 695.79
  Q 636.24 708.16 618.08 717.80
  Q 613.48 720.25 604.87 723.96
  Q 598.07 726.90 591.43 729.66
  Q 580.76 734.09 561.28 738.45
  Q 557.38 739.32 552.29 740.00
  Q 551.42 740.12 543.27 741.32
  Q 535.62 742.44 529.67 742.73
  C 521.10 743.14 513.39 743.76 504.07 743.45
  Q 493.10 743.08 489.49 742.76
  Q 474.67 741.45 454.05 736.71
  Q 443.95 734.38 434.95 731.06
  Q 400.71 718.40 375.75 699.94
  Q 363.73 691.04 348.47 674.47
  Q 343.69 669.28 338.66 662.04
  Q 332.42 653.05 329.86 648.25
  Q 325.91 640.81 320.15 626.90
  Q 316.60 618.33 313.97 607.92
  Q 309.52 590.22 308.99 586.72
  Q 307.93 579.75 306.43 550.10
  Q 306.27 547.00 306.37 545.12
  Q 306.55 541.86 308.54 544.45
  Q 310.82 547.43 313.23 551.79
  C 314.11 553.37 315.49 554.86 316.74 556.25
  Q 321.44 566.66 329.90 581.39
  Q 341.01 600.70 354.40 615.34
  Q 356.09 617.18 363.00 623.63
  L 370.81 630.61
  Q 379.07 639.05 388.76 644.47
  L 396.33 649.57
  Q 404.61 655.47 410.32 658.67
  Q 417.87 662.90 426.28 665.22
  Q 429.31 666.85 430.58 666.66
  Q 435.52 669.02 441.87 670.82
  Q 465.38 677.49 488.75 679.44
  Q 503.97 680.72 513.00 680.81
  Q 519.29 680.88 531.95 680.05
  L 552.24 677.84
  Q 555.27 677.22 558.18 676.45
  Q 561.49 675.57 564.12 675.05
  Q 595.90 668.69 623.73 651.75
  L 639.28 641.92
  L 648.01 634.91
  L 657.78 627.44
  Q 669.19 617.16 679.25 605.25
  Q 690.75 591.65 699.39 574.63
  Q 703.94 565.67 708.47 554.32
  Q 709.15 552.59 707.32 552.89
  Q 695.72 554.79 683.53 558.02
  Q 680.46 558.84 678.16 559.92
  Q 675.75 561.06 676.65 558.55
  Q 677.81 555.30 680.94 550.91
  Q 681.61 549.96 693.58 533.36
  Q 701.33 522.61 705.86 509.86
  Q 708.26 503.10 707.36 495.70
  A 0.72 0.72 0.0 0 1 708.36 494.96
  Q 710.92 496.10 712.78 498.87
  Z"
/>
<path fill="#b82034" d="
  M 316.74 556.25
  C 315.49 554.86 314.11 553.37 313.23 551.79
  Q 310.82 547.43 308.54 544.45
  Q 306.55 541.86 306.37 545.12
  Q 306.27 547.00 306.43 550.10
  Q 307.93 579.75 308.99 586.72
  Q 309.52 590.22 313.97 607.92
  Q 316.60 618.33 320.15 626.90
  Q 325.91 640.81 329.86 648.25
  Q 332.42 653.05 338.66 662.04
  Q 343.69 669.28 348.47 674.47
  Q 363.73 691.04 375.75 699.94
  Q 400.71 718.40 434.95 731.06
  Q 443.95 734.38 454.05 736.71
  Q 474.67 741.45 489.49 742.76
  Q 493.10 743.08 504.07 743.45
  C 513.39 743.76 521.10 743.14 529.67 742.73
  Q 535.62 742.44 543.27 741.32
  Q 551.42 740.12 552.29 740.00
  Q 557.38 739.32 561.28 738.45
  Q 580.76 734.09 591.43 729.66
  Q 598.07 726.90 604.87 723.96
  Q 613.48 720.25 618.08 717.80
  Q 636.24 708.16 652.04 695.79
  Q 661.29 688.55 671.48 678.09
  Q 676.59 672.84 681.58 666.05
  C 688.08 657.20 693.79 649.32 698.30 640.09
  Q 702.78 630.93 704.57 626.94
  Q 706.62 622.38 708.17 617.12
  Q 710.63 608.82 711.15 607.07
  Q 712.90 601.16 713.60 597.00
  C 714.37 592.44 715.42 588.29 716.03 583.37
  Q 717.98 567.67 717.62 551.85
  Q 717.54 548.46 717.15 547.11
  C 716.59 545.16 716.08 543.01 716.04 540.81
  Q 715.78 525.98 715.55 522.99
  Q 715.05 516.47 712.79 504.71
  Q 712.39 502.62 712.78 498.87
  Q 720.21 507.59 724.53 514.47
  Q 730.93 524.67 741.37 543.89
  C 744.22 549.15 745.29 553.18 746.70 559.45
  A 0.64 0.64 0.0 0 1 745.73 560.12
  Q 743.99 558.97 741.74 557.80
  Q 741.64 557.75 730.63 552.37
  C 729.31 551.73 728.15 550.72 726.94 549.97
  Q 725.93 549.35 726.24 550.49
  Q 726.81 552.55 728.69 559.80
  Q 734.88 583.66 732.20 607.88
  Q 731.09 617.96 728.57 627.53
  Q 717.91 667.95 688.44 698.45
  C 675.02 712.35 659.47 725.09 642.62 734.86
  Q 616.60 749.93 587.65 757.88
  C 555.88 766.60 523.10 770.56 490.78 768.22
  Q 444.31 764.85 401.25 746.06
  Q 395.81 743.69 386.97 738.68
  Q 344.62 714.69 318.49 677.14
  Q 313.28 669.66 307.55 658.34
  Q 302.85 649.06 299.81 639.88
  Q 286.54 599.76 298.01 558.27
  Q 298.39 556.90 299.97 551.47
  A 0.46 0.46 0.0 0 0 299.38 550.90
  Q 292.14 553.36 285.29 556.03
  Q 280.90 557.73 277.12 560.49
  A 0.94 0.92 -39.0 0 1 275.87 560.37
  Q 275.68 560.16 275.76 559.50
  Q 276.18 556.19 278.35 551.61
  Q 284.91 537.81 288.94 531.17
  Q 291.15 527.54 299.42 514.66
  Q 303.21 508.77 310.34 500.61
  Q 312.65 497.97 315.37 496.23
  A 0.97 0.97 0.0 0 1 316.86 497.07
  Q 316.74 501.50 317.24 504.26
  Q 319.46 516.52 326.05 526.95
  C 331.32 535.28 335.43 540.28 341.59 548.26
  C 343.93 551.29 346.38 555.65 347.92 559.39
  A 0.55 0.55 0.0 0 1 347.24 560.12
  Q 333.82 555.64 316.97 553.67
  Q 316.06 553.56 316.29 554.45
  L 316.74 556.25
  Z"
/>
<path fill="#e7f3f5" d="
  M 471.48 530.78
  A 11.54 11.54 0.0 0 1 459.94 542.32
  A 11.54 11.54 0.0 0 1 448.40 530.78
  A 11.54 11.54 0.0 0 1 459.94 519.24
  A 11.54 11.54 0.0 0 1 471.48 530.78
  Z"
/>
<path fill="#e02f40" d="
  M 588.99 530.10
  Q 588.48 536.74 589.31 548.07
  Q 590.06 558.40 587.60 566.86
  Q 586.94 569.13 583.83 577.11
  Q 583.44 578.13 581.22 578.79
  Q 578.89 577.89 576.06 578.37
  Q 567.98 579.73 566.34 580.18
  Q 565.84 580.32 565.57 579.88
  Q 564.43 578.07 565.44 576.42
  C 569.14 570.37 575.85 563.55 579.27 558.00
  Q 587.03 545.43 586.00 530.07
  Q 585.97 529.54 586.43 529.30
  Q 587.37 528.79 588.99 530.10
  Z"
/>
<path fill="#0f8cb8" d="
  M 575.45 623.94
  Q 599.88 616.80 607.32 615.03
  Q 614.05 613.43 623.40 613.73
  C 634.76 614.09 645.00 618.73 654.97 624.80
  Q 656.88 625.96 657.78 627.44
  L 648.01 634.91
  Q 639.04 632.87 630.05 631.55
  Q 621.26 630.25 614.95 631.00
  Q 607.36 631.89 600.01 634.22
  Q 583.58 639.44 581.24 640.21
  Q 574.02 642.59 564.00 643.08
  Q 555.78 643.47 546.76 641.45
  Q 533.71 638.53 521.59 632.54
  Q 504.59 624.12 493.74 620.40
  Q 475.99 614.32 457.15 619.23
  Q 448.07 621.59 445.48 622.71
  Q 433.13 628.00 420.44 632.39
  Q 405.96 637.40 395.50 636.64
  Q 385.27 635.90 370.81 630.61
  L 363.00 623.63
  L 361.81 621.05
  A 0.60 0.60 0.0 0 1 362.48 620.22
  Q 376.53 623.35 390.45 621.44
  Q 401.20 619.96 409.79 617.17
  Q 419.43 614.04 427.78 608.49
  Q 432.75 606.00 437.73 603.99
  Q 467.02 592.16 495.45 602.41
  Q 502.00 604.77 511.73 609.97
  C 520.79 614.81 527.52 618.56 536.14 622.09
  Q 555.49 630.00 575.45 623.94
  Z"
/>
<path fill="#65b8d0" d="
  M 648.01 634.91
  L 639.28 641.92
  Q 636.52 641.12 634.06 640.32
  Q 630.84 639.26 628.80 638.91
  Q 615.41 636.59 602.51 641.34
  Q 598.06 642.97 583.51 649.01
  Q 564.67 656.82 544.96 650.03
  Q 532.59 645.76 523.61 640.91
  Q 510.86 634.03 507.44 632.36
  C 490.01 623.87 470.05 621.56 451.52 627.52
  Q 443.81 630.00 434.02 634.43
  Q 422.92 639.45 419.40 640.52
  Q 411.59 642.89 403.20 643.64
  Q 397.58 644.15 388.76 644.47
  Q 379.07 639.05 370.81 630.61
  Q 385.27 635.90 395.50 636.64
  Q 405.96 637.40 420.44 632.39
  Q 433.13 628.00 445.48 622.71
  Q 448.07 621.59 457.15 619.23
  Q 475.99 614.32 493.74 620.40
  Q 504.59 624.12 521.59 632.54
  Q 533.71 638.53 546.76 641.45
  Q 555.78 643.47 564.00 643.08
  Q 574.02 642.59 581.24 640.21
  Q 583.58 639.44 600.01 634.22
  Q 607.36 631.89 614.95 631.00
  Q 621.26 630.25 630.05 631.55
  Q 639.04 632.87 648.01 634.91
  Z"
/>
<path fill="#0f8cb8" d="
  M 639.28 641.92
  L 623.73 651.75
  Q 616.54 655.40 609.47 659.07
  Q 609.39 659.11 608.93 659.00
  Q 608.62 658.92 608.37 659.10
  Q 606.51 660.43 604.25 660.88
  Q 603.76 660.98 603.23 661.35
  Q 602.58 661.81 602.16 661.94
  Q 587.98 666.24 582.37 666.74
  Q 577.89 667.13 568.26 667.76
  Q 555.43 668.59 543.84 665.86
  Q 532.44 663.18 523.72 659.78
  Q 517.15 657.22 504.30 651.19
  Q 481.04 640.30 455.94 646.95
  C 450.43 648.41 442.08 651.77 435.60 653.45
  Q 427.56 655.54 425.61 655.88
  Q 418.66 657.12 410.69 655.95
  Q 407.53 655.49 404.16 653.70
  Q 400.28 651.64 396.33 649.57
  L 388.76 644.47
  Q 397.58 644.15 403.20 643.64
  Q 411.59 642.89 419.40 640.52
  Q 422.92 639.45 434.02 634.43
  Q 443.81 630.00 451.52 627.52
  C 470.05 621.56 490.01 623.87 507.44 632.36
  Q 510.86 634.03 523.61 640.91
  Q 532.59 645.76 544.96 650.03
  Q 564.67 656.82 583.51 649.01
  Q 598.06 642.97 602.51 641.34
  Q 615.41 636.59 628.80 638.91
  Q 630.84 639.26 634.06 640.32
  Q 636.52 641.12 639.28 641.92
  Z"
/>
<path fill="#65b8d0" d="
  M 623.73 651.75
  Q 595.90 668.69 564.12 675.05
  Q 561.49 675.57 558.18 676.45
  Q 555.27 677.22 552.24 677.84
  L 556.61 676.36
  Q 557.09 676.20 556.74 675.83
  Q 556.12 675.16 555.04 675.16
  Q 540.36 675.15 526.07 669.92
  Q 517.73 666.87 505.57 661.07
  C 500.57 658.68 494.62 656.47 489.77 655.00
  C 479.28 651.81 469.02 650.92 458.47 653.56
  Q 451.77 655.24 448.05 656.53
  Q 440.74 659.09 426.28 665.22
  Q 417.87 662.90 410.32 658.67
  Q 404.61 655.47 396.33 649.57
  Q 400.28 651.64 404.16 653.70
  Q 407.53 655.49 410.69 655.95
  Q 418.66 657.12 425.61 655.88
  Q 427.56 655.54 435.60 653.45
  C 442.08 651.77 450.43 648.41 455.94 646.95
  Q 481.04 640.30 504.30 651.19
  Q 517.15 657.22 523.72 659.78
  Q 532.44 663.18 543.84 665.86
  Q 555.43 668.59 568.26 667.76
  Q 577.89 667.13 582.37 666.74
  Q 587.98 666.24 602.16 661.94
  Q 602.58 661.81 603.23 661.35
  Q 603.76 660.98 604.25 660.88
  Q 606.51 660.43 608.37 659.10
  Q 608.62 658.92 608.93 659.00
  Q 609.39 659.11 609.47 659.07
  Q 616.54 655.40 623.73 651.75
  Z"
/>
<path fill="#0f8cb8" d="
  M 552.24 677.84
  L 531.95 680.05
  C 525.12 680.16 517.39 680.46 511.18 679.64
  Q 501.56 678.36 489.47 676.09
  Q 479.20 674.16 465.95 673.35
  Q 453.72 672.60 447.99 671.49
  Q 439.20 669.78 430.58 666.66
  Q 429.31 666.85 426.28 665.22
  Q 440.74 659.09 448.05 656.53
  Q 451.77 655.24 458.47 653.56
  C 469.02 650.92 479.28 651.81 489.77 655.00
  C 494.62 656.47 500.57 658.68 505.57 661.07
  Q 517.73 666.87 526.07 669.92
  Q 540.36 675.15 555.04 675.16
  Q 556.12 675.16 556.74 675.83
  Q 557.09 676.20 556.61 676.36
  L 552.24 677.84
  Z"
/>
<path fill="#65b8d0" d="
  M 531.95 680.05
  Q 519.29 680.88 513.00 680.81
  Q 503.97 680.72 488.75 679.44
  Q 465.38 677.49 441.87 670.82
  Q 435.52 669.02 430.58 666.66
  Q 439.20 669.78 447.99 671.49
  Q 453.72 672.60 465.95 673.35
  Q 479.20 674.16 489.47 676.09
  Q 501.56 678.36 511.18 679.64
  C 517.39 680.46 525.12 680.16 531.95 680.05
  Z"
/>
</svg>
