<svg width="495" height="537" viewBox="0 0 495 537" fill="none" xmlns="http://www.w3.org/2000/svg">
<path d="M280.834 5.32958C278.745 13.3711 274.924 21.1921 271.039 28.5303C252.64 21.9795 236.543 24.7125 222.748 36.7292C220.817 38.4089 218.857 40.5155 216.869 43.0491C206.067 56.8015 203.232 72.601 209.773 88.936C211.172 92.4354 213.944 96.6731 218.087 101.649C216.113 110.625 210.602 118.173 205.542 125.658C196.297 117.54 189.392 107.763 184.829 96.3266C178.684 80.8805 178.31 65.3539 183.706 49.7468C187.688 38.234 194.085 28.2923 202.896 19.9219C207.922 15.1417 213.643 11.1525 220.061 7.95409C238.485 -1.2212 261.539 -2.73292 280.834 5.32958Z" fill="#E02F40"/>
<path d="M321.167 336.616C322.721 336.155 323.635 335.567 323.907 334.853C326.084 329.268 327.403 325.681 327.865 324.092C329.587 318.171 330.185 311.596 329.66 304.366C329.08 296.437 328.968 290.149 329.324 285.501C336.078 292.654 341.135 300.608 344.494 309.364C346.391 314.305 347.895 319.337 349.008 324.46C350.023 329.128 350.412 334.394 350.174 340.259C350.168 340.385 350.134 340.509 350.074 340.619C350.013 340.73 349.928 340.825 349.825 340.896C349.722 340.967 349.604 341.013 349.48 341.03C349.357 341.048 349.231 341.035 349.113 340.994L341.418 338.37C341.27 338.318 341.111 338.301 340.955 338.321C340.799 338.341 340.649 338.397 340.518 338.484C340.386 338.571 340.275 338.687 340.195 338.824C340.115 338.961 340.066 339.114 340.053 339.272C339.193 350.435 335.179 360.293 328.012 368.845C324.982 372.464 319.978 375.834 313 378.955C310.599 379.522 307.901 379.805 304.906 379.805C297.97 379.805 291.804 377.723 286.408 373.559C276.953 366.266 269.983 357.042 265.496 345.886C263.075 339.867 261.479 335.388 260.709 332.449C258.267 323.084 255.817 313.706 253.361 304.314C255.201 301.109 256.157 298.74 256.227 297.207C256.513 290.495 256.346 278.706 255.723 261.839C255.429 253.976 255.807 245.315 255.754 238.155C255.607 219.679 255.247 191.967 254.673 155.021C254.533 145.909 254.718 124.44 255.229 90.6157C260.59 90.8187 265.472 92.4599 269.874 95.5393C273.366 97.9818 275.378 101.31 275.91 105.523C276.092 106.958 276.218 108.672 276.288 110.667C276.293 110.834 276.34 110.998 276.424 111.143C276.507 111.288 276.626 111.409 276.769 111.497C276.912 111.584 277.074 111.635 277.241 111.644C277.408 111.653 277.575 111.62 277.727 111.549C289.463 105.922 297.736 94.0276 300.717 81.4824C302.446 74.1898 301.953 66.6802 299.237 58.9536C294.24 44.7322 284.841 34.5912 271.039 28.5303C274.924 21.1921 278.745 13.3711 280.834 5.32959C283.535 6.29541 286.482 7.72313 289.673 9.61278C302.012 16.9124 311.443 26.7946 317.966 39.2593C325.447 53.5786 328.054 68.4264 325.787 83.8025C324.709 91.0881 322.714 97.7789 319.803 103.875C313.168 117.753 302.838 128.346 288.813 135.652C285.579 137.339 282.083 138.665 278.325 139.631C278.216 139.659 278.12 139.722 278.052 139.809C277.983 139.897 277.946 140.004 277.947 140.114C278.024 144.824 278.087 147.778 278.136 148.974C279.522 183.611 280.379 206.969 280.708 219.049C281.73 256.45 282.958 290.817 284.393 322.15C284.631 327.252 284.991 331.801 285.474 335.798C286.807 346.8 295.542 351.503 305.777 350.411C312.139 349.729 318.071 344.417 321.146 339.136C321.671 338.233 321.678 337.393 321.167 336.616Z" fill="#B82034"/>
<path d="M255.229 90.6157C254.718 124.44 254.533 145.909 254.673 155.021C255.247 191.967 255.607 219.679 255.754 238.155C255.807 245.315 255.429 253.976 255.723 261.839C256.346 278.706 256.513 290.495 256.227 297.207C256.157 298.74 255.201 301.109 253.361 304.314C251.051 296.091 249.326 290.418 248.185 287.297C241.928 270.262 235.44 253.311 228.722 236.444C228.47 235.814 228.246 235.177 228.05 234.533C227.91 234.051 227.896 233.753 228.008 233.641L231.199 140.261C231.346 139.491 231.374 137.829 231.283 135.274C231.073 129.403 231.29 122.246 231.934 113.806C232.029 112.588 231.651 111.727 231.325 110.594C231.654 110.111 231.808 109.677 231.787 109.292C231.444 103.028 233.505 98.3773 237.97 95.3398C242.443 92.2954 248.196 90.7207 255.229 90.6157Z" fill="#E02F40"/>
<path d="M231.325 110.593C231.651 111.727 232.029 112.588 231.934 113.806C231.29 122.246 231.073 129.403 231.283 135.274C231.374 137.829 231.346 139.491 231.199 140.261C227.917 138.798 224.568 137.336 221.153 135.873C216.282 133.78 211.078 130.375 205.542 125.658C210.602 118.173 216.114 110.625 218.087 101.649C221.58 105.54 225.67 108.641 230.359 110.95C230.632 111.083 230.877 111.041 231.094 110.824L231.325 110.593Z" fill="#B82034"/>
<path d="M228.05 234.533L227.63 234.439C227.686 234.068 227.812 233.802 228.008 233.641C227.896 233.753 227.91 234.051 228.05 234.533Z" fill="#65B8D0"/>
<path d="M228.05 234.533C228.246 235.177 228.47 235.814 228.722 236.444C235.44 253.311 241.928 270.262 248.185 287.297C249.326 290.418 251.051 296.091 253.361 304.314C255.817 313.706 258.267 323.084 260.709 332.449C261.479 335.388 263.075 339.867 265.496 345.886C269.983 357.042 276.953 366.266 286.408 373.559C291.804 377.723 297.97 379.805 304.906 379.805C307.901 379.805 310.599 379.522 313 378.955C314.547 380.103 315.25 381.79 315.11 384.015C301.141 388.256 287.385 387.609 273.842 382.073C264.793 378.367 257.728 374.43 248.217 369.349C241.407 365.71 235.71 363.065 231.126 361.413C211.228 354.239 191.03 354.792 170.531 363.072C167.046 364.478 163.564 366.053 160.085 367.796C161.044 366.158 162.22 364.807 163.613 363.743C193.63 340.767 212.737 310.987 220.932 274.405C223.284 263.897 224.816 248.895 226.339 238.901C226.507 237.816 226.937 236.329 227.63 234.439L228.05 234.533Z" fill="#E7F3F5"/>
<path d="M203.689 255.9C202.448 255.475 201.304 254.803 200.324 253.923C199.344 253.042 198.546 251.971 197.977 250.769C197.407 249.567 197.077 248.259 197.005 246.919C196.933 245.579 197.12 244.234 197.556 242.959C197.993 241.685 198.669 240.507 199.548 239.492C200.426 238.478 201.489 237.647 202.675 237.046C203.862 236.446 205.149 236.088 206.463 235.993C207.777 235.898 209.092 236.068 210.334 236.493C211.576 236.918 212.719 237.59 213.7 238.471C214.68 239.351 215.477 240.423 216.047 241.624C216.616 242.826 216.947 244.134 217.019 245.474C217.091 246.814 216.903 248.16 216.467 249.434C216.031 250.708 215.354 251.886 214.476 252.901C213.598 253.916 212.535 254.747 211.348 255.347C210.162 255.948 208.875 256.306 207.561 256.401C206.247 256.496 204.931 256.326 203.689 255.9Z" fill="#E7F3F5"/>
<path d="M179.697 263.937C178.496 264.512 177.189 264.837 175.852 264.893C174.514 264.949 173.172 264.734 171.901 264.262C170.631 263.79 169.457 263.069 168.447 262.141C167.437 261.212 166.611 260.094 166.015 258.851C164.812 256.34 164.622 253.47 165.486 250.873C166.351 248.276 168.199 246.164 170.625 245.002C171.826 244.426 173.132 244.101 174.47 244.046C175.807 243.99 177.15 244.204 178.42 244.676C179.691 245.149 180.864 245.869 181.874 246.798C182.884 247.726 183.711 248.844 184.306 250.087C185.509 252.598 185.699 255.468 184.835 258.065C183.971 260.663 182.122 262.775 179.697 263.937Z" fill="#E7F3F5"/>
<path d="M459.28 252.716C459.007 255.341 459.01 257.384 459.29 258.847C460.872 267.077 461.838 273.474 462.188 278.037C462.349 280.13 462.52 286.366 462.702 296.745C462.744 299.054 463.28 301.312 463.867 303.359C464.14 304.303 464.305 305.962 464.361 308.335C464.613 319.407 464.056 330.437 462.692 341.425C462.051 346.59 460.949 350.946 460.141 355.733C459.651 358.645 458.793 362.169 457.569 366.305C457.205 367.53 456.162 371.047 454.44 376.855C453.355 380.537 452.096 383.973 450.661 387.165C449.408 389.957 447.214 394.559 444.079 400.97C439.344 410.659 433.35 418.932 426.526 428.222C423.034 432.975 419.499 437.188 415.923 440.862C408.791 448.183 401.988 454.377 395.515 459.444C384.457 468.101 372.573 475.803 359.863 482.55C356.644 484.264 352.021 486.42 345.995 489.017C341.236 491.074 336.533 493.069 331.886 495C324.418 498.101 313.868 501.177 300.234 504.228C297.505 504.837 294.359 505.38 290.797 505.855C290.188 505.939 287.031 506.401 281.327 507.241C275.973 508.025 271.214 508.518 267.05 508.721C258.053 509.152 249.959 509.803 240.175 509.477C232.497 509.218 227.395 508.977 224.869 508.753C214.497 507.836 202.095 505.719 187.664 502.402C180.595 500.771 173.911 498.794 167.613 496.47C143.649 487.61 122.933 476.72 105.464 463.8C97.0517 457.571 87.5054 448.659 76.8254 437.062C73.48 433.429 70.0472 429.08 66.5268 424.013C62.1597 417.721 59.0802 412.895 57.2885 409.536C54.5241 404.329 51.1262 396.858 47.0949 387.123C44.6104 381.125 42.4478 374.483 40.6072 367.197C37.4927 354.81 35.75 347.391 35.3791 344.941C34.6373 340.063 33.7414 327.249 32.6916 306.498C32.5796 304.328 32.5586 302.585 32.6286 301.27C32.7546 298.988 33.514 298.754 34.9067 300.566C36.5024 302.652 38.1436 305.22 39.8303 308.272C40.7541 309.93 42.2028 311.495 43.5151 312.954C46.8045 320.24 51.4096 329.037 57.3305 339.346C65.1061 352.86 73.6795 364.741 83.0508 374.987C84.2335 376.275 87.243 379.176 92.0791 383.69L100.278 391.017C106.059 396.924 112.34 401.774 119.122 405.568L127.069 410.922C132.864 415.051 137.76 418.235 141.756 420.475C147.04 423.435 152.625 425.727 158.511 427.351C160.631 428.492 162.136 428.996 163.025 428.863C166.482 430.514 170.433 431.97 174.877 433.23C191.331 437.898 207.736 440.915 224.092 442.279C234.744 443.175 243.23 443.655 249.55 443.718C253.952 443.767 260.583 443.501 269.444 442.92L290.744 440.6C292.865 440.166 294.943 439.679 296.98 439.14C299.297 438.525 301.375 438.035 303.216 437.671C325.458 433.219 346.317 425.066 365.795 413.21L382.119 402.891L391.284 395.531L401.541 387.689C409.526 380.495 417.039 372.73 424.08 364.394C432.128 354.876 439.176 344.161 445.223 332.249C448.407 325.978 451.585 318.871 454.755 310.928C455.231 309.717 454.829 309.217 453.548 309.427C445.429 310.756 437.104 312.551 428.573 314.812C426.424 315.386 424.545 316.051 422.935 316.807C421.249 317.604 420.72 317.125 421.35 315.368C422.162 313.094 423.663 310.42 425.854 307.348C426.323 306.683 430.746 300.542 439.124 288.924C444.548 281.4 448.845 273.177 452.015 264.253C453.695 259.522 454.22 254.567 453.59 249.388C453.575 249.257 453.596 249.124 453.649 249.003C453.702 248.882 453.785 248.777 453.892 248.698C453.998 248.62 454.123 248.57 454.254 248.555C454.385 248.54 454.518 248.559 454.64 248.611C456.431 249.409 457.978 250.777 459.28 252.716Z" fill="#E02F40"/>
<path d="M43.5151 312.954C42.2028 311.495 40.7541 309.93 39.8303 308.272C38.1436 305.22 36.5024 302.652 34.9067 300.566C33.514 298.754 32.7546 298.988 32.6286 301.27C32.5586 302.585 32.5796 304.328 32.6916 306.498C33.7414 327.249 34.6373 340.063 35.3791 344.941C35.75 347.391 37.4927 354.81 40.6072 367.197C42.4478 374.483 44.6104 381.125 47.0949 387.123C51.1262 396.858 54.524 404.329 57.2885 409.536C59.0802 412.895 62.1596 417.721 66.5268 424.013C70.0472 429.08 73.48 433.429 76.8254 437.062C87.5054 448.659 97.0516 457.571 105.464 463.8C122.933 476.72 143.649 487.61 167.613 496.47C173.911 498.794 180.595 500.771 187.664 502.402C202.095 505.719 214.497 507.836 224.869 508.753C227.395 508.977 232.497 509.218 240.175 509.477C249.959 509.803 258.053 509.152 267.05 508.721C271.214 508.518 275.973 508.025 281.327 507.241C287.031 506.401 290.188 505.939 290.797 505.855C294.359 505.38 297.505 504.837 300.234 504.228C313.868 501.177 324.418 498.101 331.886 495C336.533 493.069 341.236 491.074 345.995 489.017C352.021 486.42 356.644 484.264 359.863 482.55C372.573 475.803 384.457 468.101 395.515 459.444C401.988 454.377 408.791 448.183 415.923 440.862C419.499 437.188 423.034 432.975 426.526 428.222C433.35 418.932 439.344 410.659 444.079 400.97C447.214 394.559 449.408 389.957 450.661 387.165C452.096 383.973 453.355 380.537 454.44 376.855C456.162 371.047 457.205 367.53 457.569 366.305C458.793 362.169 459.651 358.645 460.141 355.733C460.949 350.946 462.051 346.59 462.692 341.425C464.056 330.437 464.613 319.407 464.361 308.335C464.305 305.962 464.14 304.303 463.867 303.359C463.28 301.312 462.744 299.054 462.702 296.745C462.52 286.366 462.349 280.13 462.188 278.037C461.838 273.474 460.872 267.077 459.29 258.847C459.01 257.384 459.007 255.341 459.28 252.716C464.48 258.819 468.592 264.278 471.615 269.093C476.094 276.232 481.987 286.527 489.294 299.978C492.286 305.5 493.409 309.731 494.889 316.313C494.916 316.443 494.904 316.577 494.855 316.699C494.806 316.822 494.722 316.927 494.613 317.002C494.504 317.077 494.376 317.119 494.244 317.121C494.112 317.124 493.982 317.087 493.871 317.017C492.653 316.212 491.257 315.4 489.682 314.581C489.612 314.546 485.724 312.646 478.019 308.881C476.633 308.209 475.415 307.148 474.145 306.361C473.438 305.927 473.193 306.109 473.41 306.907C473.809 308.349 474.666 311.607 475.982 316.681C480.314 333.38 481.543 350.204 479.667 367.155C478.89 374.21 477.62 381.086 475.856 387.784C468.396 416.073 454.353 440.89 433.728 462.236C419.639 476.828 403.315 490.203 385.625 500.459C367.415 511.007 348.179 519.062 327.918 524.626C294.565 533.78 260.153 537.937 226.223 535.481C193.7 533.122 162.37 525.368 132.234 512.217C128.427 510.559 123.43 507.976 117.243 504.47C87.6034 487.68 63.6399 466.145 45.3523 439.865C41.7059 434.63 37.8776 428.051 33.8674 420.128C30.578 413.634 27.8695 407.174 25.7419 400.749C16.4546 372.67 15.8248 344.112 23.8523 315.075C24.1182 314.116 24.8041 311.736 25.9099 307.936C25.9361 307.851 25.9382 307.76 25.916 307.673C25.8937 307.587 25.848 307.508 25.7839 307.447C25.7197 307.385 25.6397 307.342 25.5526 307.322C25.4655 307.303 25.3748 307.308 25.2905 307.337C20.2234 309.059 15.2929 310.854 10.4988 312.723C7.42633 313.913 4.56735 315.473 1.92184 317.405C1.72341 317.551 1.47864 317.62 1.23576 317.596C0.992883 317.573 0.769498 317.46 0.609589 317.279C0.476614 317.132 0.438136 316.828 0.494126 316.366C0.788071 314.049 1.6944 311.288 3.21312 308.083C7.80426 298.425 11.5101 291.272 14.3305 286.625C15.8773 284.084 19.5446 278.307 25.3325 269.292C27.985 265.17 31.8063 260.254 36.7964 254.543C38.4131 252.695 40.1732 251.162 42.0769 249.945C42.2324 249.846 42.4119 249.791 42.5962 249.786C42.7804 249.781 42.9626 249.826 43.1231 249.917C43.2837 250.008 43.4166 250.14 43.5079 250.3C43.5991 250.46 43.6451 250.642 43.6411 250.826C43.5571 253.927 43.6901 256.443 44.04 258.375C45.5937 266.955 48.6766 274.895 53.2888 282.195C58.8213 290.939 63.136 296.189 69.6028 304.566C72.0593 307.747 74.6313 312.324 76.248 316.25C76.2895 316.352 76.3009 316.464 76.281 316.572C76.2611 316.68 76.2106 316.781 76.1356 316.861C76.0606 316.942 75.9641 316.999 75.8576 317.027C75.751 317.054 75.6388 317.051 75.5341 317.017C66.1419 313.881 55.5494 311.624 43.7566 310.245C43.1197 310.168 42.8817 310.441 43.0427 311.064L43.5151 312.954Z" fill="#B82034"/>
<path d="M205.962 286.215C205.962 289.428 204.686 292.51 202.414 294.782C200.142 297.054 197.06 298.33 193.847 298.33C192.256 298.33 190.681 298.017 189.211 297.408C187.741 296.799 186.406 295.907 185.281 294.782C184.156 293.657 183.263 292.321 182.655 290.851C182.046 289.382 181.732 287.806 181.732 286.215C181.732 284.624 182.046 283.049 182.655 281.579C183.263 280.109 184.156 278.774 185.281 277.649C186.406 276.524 187.741 275.632 189.211 275.023C190.681 274.414 192.256 274.101 193.847 274.101C197.06 274.101 200.142 275.377 202.414 277.649C204.686 279.921 205.962 283.002 205.962 286.215Z" fill="#E7F3F5"/>
<path d="M329.324 285.501C328.968 290.149 329.079 296.437 329.66 304.366C330.185 311.596 329.587 318.171 327.865 324.092C327.403 325.681 326.084 329.268 323.907 334.853C323.635 335.567 322.721 336.154 321.167 336.616C319.537 335.987 317.731 335.84 315.75 336.175C310.096 337.127 306.694 337.761 305.546 338.076C305.196 338.174 304.927 338.069 304.738 337.761C303.94 336.494 303.895 335.283 304.602 334.128C308.486 327.777 315.53 320.617 319.12 314.791C324.551 305.994 326.906 296.22 326.186 285.47C326.165 285.099 326.315 284.83 326.637 284.662C327.295 284.305 328.191 284.585 329.324 285.501Z" fill="#E02F40"/>
<path d="M315.11 384.015C332.208 379.018 343.36 375.9 348.567 374.661C353.277 373.542 358.904 373.087 365.448 373.297C377.374 373.675 388.124 378.546 398.59 384.918C399.927 385.73 400.911 386.654 401.541 387.689L391.284 395.531C385.006 394.104 378.721 392.928 372.429 392.004C366.278 391.094 360.994 390.902 356.577 391.427C351.265 392.05 346.037 393.176 340.893 394.807C329.394 398.46 322.826 400.557 321.188 401.096C316.135 402.761 310.102 403.766 303.09 404.108C297.337 404.381 291.304 403.811 284.991 402.397C275.858 400.354 267.05 397.236 258.568 393.043C246.67 387.151 236.924 382.902 229.331 380.299C216.908 376.044 204.104 375.634 190.918 379.071C184.563 380.722 180.48 381.94 178.667 382.724C170.024 386.426 161.261 389.814 152.38 392.886C142.246 396.392 133.518 397.88 126.198 397.348C119.038 396.83 110.398 394.72 100.278 391.017L92.0791 383.69L90.8298 380.981C90.7831 380.875 90.7664 380.759 90.7816 380.644C90.7968 380.529 90.8432 380.421 90.9159 380.331C90.9885 380.241 91.0846 380.173 91.1934 380.134C91.3023 380.095 91.4199 380.087 91.5332 380.11C101.366 382.3 111.154 382.727 120.896 381.391C128.42 380.355 135.188 378.861 141.199 376.908C147.946 374.717 154.241 371.68 160.085 367.796C163.564 366.053 167.046 364.478 170.531 363.072C191.03 354.792 211.228 354.239 231.126 361.413C235.71 363.065 241.407 365.71 248.217 369.349C257.728 374.43 264.793 378.367 273.842 382.073C287.385 387.609 301.141 388.256 315.11 384.015Z" fill="#0F8CB8"/>
<path d="M391.284 395.532L382.119 402.891C380.188 402.331 378.361 401.771 376.639 401.211C374.386 400.469 372.545 399.976 371.117 399.731C361.746 398.107 352.546 398.957 343.518 402.282C340.403 403.423 333.755 406.107 323.572 410.334C310.386 415.8 296.896 416.157 283.102 411.405C274.444 408.416 266.973 405.225 260.688 401.83C251.765 397.015 246.106 394.023 243.713 392.855C225.415 383.942 204.461 381.517 185.008 387.773C179.612 389.509 173.488 391.927 166.636 395.028C158.868 398.541 153.752 400.672 151.288 401.421C145.822 403.08 140.153 404.171 134.281 404.696C130.348 405.053 125.295 405.344 119.122 405.568C112.34 401.774 106.059 396.924 100.278 391.017C110.398 394.72 119.038 396.83 126.198 397.348C133.518 397.88 142.246 396.392 152.38 392.886C161.261 389.814 170.024 386.426 178.667 382.724C180.48 381.94 184.563 380.722 190.918 379.071C204.104 375.634 216.908 376.044 229.331 380.299C236.924 382.902 246.67 387.151 258.568 393.043C267.05 397.236 275.858 400.354 284.991 402.397C291.304 403.811 297.337 404.381 303.09 404.108C310.103 403.766 316.135 402.761 321.188 401.096C322.826 400.557 329.394 398.46 340.893 394.807C346.037 393.176 351.265 392.05 356.577 391.427C360.994 390.902 366.278 391.094 372.429 392.004C378.721 392.928 385.006 394.104 391.284 395.532Z" fill="#65B8D0"/>
<path d="M382.119 402.891L365.795 413.21C360.763 415.765 355.772 418.326 350.824 420.895C350.768 420.923 350.579 420.898 350.258 420.821C350.041 420.765 349.845 420.8 349.67 420.926C348.368 421.857 346.926 422.48 345.344 422.795C345.002 422.865 344.645 423.029 344.274 423.288C343.819 423.61 343.444 423.817 343.15 423.908C333.226 426.917 326.301 428.597 322.375 428.947C319.239 429.22 314.302 429.577 307.562 430.018C298.583 430.598 290.037 429.934 281.926 428.023C273.947 426.147 266.907 424.02 260.804 421.64C256.206 419.848 249.41 416.843 240.416 412.622C224.138 405.001 207.215 403.517 189.648 408.171C183.864 409.704 175.098 413.231 168.295 414.995C162.668 416.458 159.172 417.308 157.807 417.546C152.943 418.414 147.722 418.438 142.144 417.619C139.933 417.297 137.648 416.51 135.289 415.257C132.574 413.816 129.834 412.37 127.069 410.922L119.122 405.568C125.295 405.344 130.348 405.053 134.281 404.696C140.153 404.171 145.822 403.08 151.288 401.421C153.752 400.672 158.868 398.541 166.636 395.028C173.488 391.927 179.612 389.509 185.008 387.773C204.461 381.517 225.415 383.942 243.713 392.854C246.106 394.023 251.765 397.015 260.688 401.83C266.973 405.225 274.444 408.416 283.102 411.405C296.896 416.157 310.386 415.8 323.572 410.334C333.755 406.107 340.403 403.423 343.518 402.282C352.546 398.957 361.746 398.107 371.117 399.731C372.545 399.976 374.386 400.469 376.639 401.211C378.361 401.771 380.188 402.331 382.119 402.891Z" fill="#0F8CB8"/>
<path d="M365.795 413.21C346.317 425.066 325.458 433.219 303.216 437.671C301.375 438.035 299.297 438.525 296.98 439.14C294.943 439.679 292.865 440.166 290.744 440.6L295.332 439.046C295.668 438.934 295.713 438.748 295.468 438.49C295.034 438.021 294.439 437.786 293.684 437.786C283.409 437.779 273.272 435.945 263.271 432.285C257.434 430.151 250.26 427.054 241.75 422.994C236.501 420.485 230.254 418.165 225.163 416.622C214.15 413.273 203.379 412.339 192.304 415.11C187.615 416.286 183.969 417.325 181.365 418.228C176.249 420.02 168.631 423.061 158.511 427.351C152.625 425.727 147.04 423.435 141.756 420.475C137.76 418.235 132.864 415.051 127.069 410.922C129.834 412.37 132.574 413.816 135.289 415.257C137.648 416.51 139.933 417.297 142.144 417.619C147.722 418.438 152.943 418.414 157.807 417.546C159.172 417.308 162.668 416.458 168.295 414.995C175.098 413.231 183.864 409.704 189.648 408.171C207.215 403.517 224.138 405.001 240.417 412.622C249.41 416.843 256.206 419.849 260.804 421.64C266.907 424.02 273.947 426.147 281.926 428.023C290.037 429.934 298.583 430.598 307.562 430.018C314.302 429.577 319.239 429.22 322.375 428.947C326.301 428.597 333.226 426.917 343.15 423.908C343.444 423.817 343.819 423.61 344.274 423.288C344.645 423.029 345.002 422.865 345.344 422.795C346.926 422.48 348.368 421.857 349.67 420.926C349.845 420.8 350.041 420.765 350.258 420.821C350.58 420.898 350.768 420.923 350.824 420.895C355.773 418.326 360.763 415.765 365.795 413.21Z" fill="#65B8D0"/>
<path d="M290.744 440.6L269.444 442.92C262.273 443.035 254.158 443.35 247.639 442.489C240.906 441.593 233.309 440.351 224.848 438.762C217.66 437.412 209.43 436.453 200.157 435.886C191.597 435.361 185.312 434.71 181.302 433.933C175.15 432.737 169.058 431.046 163.025 428.863C162.136 428.996 160.631 428.492 158.511 427.351C168.631 423.061 176.249 420.02 181.365 418.228C183.968 417.325 187.615 416.286 192.304 415.11C203.379 412.339 214.15 413.273 225.163 416.622C230.254 418.165 236.501 420.485 241.75 422.994C250.26 427.054 257.434 430.151 263.271 432.285C273.272 435.945 283.409 437.779 293.684 437.786C294.439 437.786 295.034 438.021 295.468 438.489C295.713 438.748 295.668 438.934 295.332 439.046L290.744 440.6Z" fill="#0F8CB8"/>
<path d="M269.444 442.92C260.583 443.501 253.952 443.767 249.55 443.718C243.23 443.655 234.744 443.175 224.092 442.279C207.736 440.915 191.331 437.898 174.877 433.23C170.433 431.97 166.482 430.514 163.025 428.863C169.058 431.046 175.15 432.737 181.302 433.933C185.312 434.71 191.597 435.361 200.157 435.886C209.43 436.453 217.66 437.412 224.848 438.763C233.309 440.351 240.906 441.593 247.639 442.489C254.158 443.35 262.273 443.035 269.444 442.92Z" fill="#65B8D0"/>
</svg>
